@startuml

entity "Project" as project {
}

entity "Model" as model {
}

entity "Part" as part {
}

entity "PackingSpec" as ps {
}

entity "Material" as material {
}

entity "Supplier" as supplier {
}

entity "Country" as country {
}

entity "Image" as img {
}

entity "User" as user {
}

entity "Department" as dept {
}

entity "Role" as role {
}

entity "Approval" as approval {
}

entity "Notification" as notif {

}

entity "PackingCostCalculation" as cost_cal {  
}

' Relationships
ps |o--|| part : "packed in a"
ps ||--o{ material : "consist of inner"
ps ||--o{ material : "consist of outer"
ps ||--o{ material : "has one module"
ps ||--o{ material : "has one box"

ps ||--o{ img: "has many \npacking step images"
ps ||--o{ img: "has many \ninner images"
ps ||--o{ img: "has many \nqkp images"
ps ||--o{ img: "has many \nbkp images"
ps ||--o| img: "has \nsoft copy image"

user ||--|| dept: "belong to"
user }o--|| role : "is a"
user ||--o{ notif: "receive"

part ||--o{ part : "has subparts"
part ||--o{ img : "has many"
supplier ||--o{ part : "produce"
'pm ||--o{ img: "has many"

approval }o--|| user : "approved by"
approval }o--|| ps : "for spec"
approval ||--o{ notif : "create"

project ||--o{ model : "has many"
model ||--o{ part : "consist"
model ||--o| country : "export to"

project }o--|| dept : "belongs to"
project }o--|| user : "PIC"

cost_cal ||--|| model : calculate parts cost of
cost_cal ||--|{ part : calculate cost for
cost_cal ||--|| country : calculate parts cost exported to

material ||--|| supplier :provided by
@enduml